<!DOCTYPE svg PUBLIC "-//W3C//DTD SVG 1.1//EN" "http://www.w3.org/Graphics/SVG/1.1/DTD/svg11.dtd">
<!-- Uploaded to: SVG Repo, www.svgrepo.com, Transformed by: SVG Repo Mixer Tools -->
<svg fill="#ffffff" width="800px" height="800px" viewBox="0 0 24 24" xmlns="http://www.w3.org/2000/svg" stroke="#ffffff">
<g id="SVGRepo_bgCarrier" stroke-width="0"/>
<g id="SVGRepo_tracerCarrier" stroke-linecap="round" stroke-linejoin="round"/>
<g id="SVGRepo_iconCarrier">
<path d="M3,23H13a1,1,0,0,0,1-1V10a1,1,0,0,0-1-1H3a1,1,0,0,0-1,1V22A1,1,0,0,0,3,23ZM4,11h8V21H4Zm12,7V7H7A1,1,0,0,1,7,5H17a1,1,0,0,1,1,1V18a1,1,0,0,1-2,0ZM22,2V15a1,1,0,0,1-2,0V3H11a1,1,0,0,1,0-2H21A1,1,0,0,1,22,2Z"/>
</g>
</svg>